<svg xmlns="http://www.w3.org/2000/svg" xmlns:xlink="http://www.w3.org/1999/xlink" width="226" zoomAndPan="magnify" viewBox="0 0 169.5 107.249998" height="143" preserveAspectRatio="xMidYMid meet" version="1.0"><defs><g/><clipPath id="4d436dc71d"><path d="M 57 38 L 102 38 L 102 61.816406 L 57 61.816406 Z M 57 38 " clip-rule="nonzero"/></clipPath><clipPath id="b3e10e38f9"><path d="M 92 27 L 93 27 L 93 28 L 92 28 Z M 92 27 " clip-rule="nonzero"/></clipPath><clipPath id="2b15a96d0f"><path d="M 67.808594 22.492188 L 98.203125 15.101562 L 101.019531 26.679688 L 70.625 34.070312 Z M 67.808594 22.492188 " clip-rule="nonzero"/></clipPath><clipPath id="6b6400689a"><path d="M 67.808594 22.492188 L 98.203125 15.101562 L 101.019531 26.679688 L 70.625 34.070312 Z M 67.808594 22.492188 " clip-rule="nonzero"/></clipPath><clipPath id="1641fe915a"><path d="M 92 24 L 97 24 L 97 29 L 92 29 Z M 92 24 " clip-rule="nonzero"/></clipPath><clipPath id="b30b88b2fe"><path d="M 67.808594 22.492188 L 98.203125 15.101562 L 101.019531 26.679688 L 70.625 34.070312 Z M 67.808594 22.492188 " clip-rule="nonzero"/></clipPath><clipPath id="8c61afda72"><path d="M 67.808594 22.492188 L 98.203125 15.101562 L 101.019531 26.679688 L 70.625 34.070312 Z M 67.808594 22.492188 " clip-rule="nonzero"/></clipPath><clipPath id="2d4dc7f8ac"><path d="M 93 25 L 95 25 L 95 27 L 93 27 Z M 93 25 " clip-rule="nonzero"/></clipPath><clipPath id="ece37c850a"><path d="M 67.808594 22.492188 L 98.203125 15.101562 L 101.019531 26.679688 L 70.625 34.070312 Z M 67.808594 22.492188 " clip-rule="nonzero"/></clipPath><clipPath id="5874b2c8ee"><path d="M 67.808594 22.492188 L 98.203125 15.101562 L 101.019531 26.679688 L 70.625 34.070312 Z M 67.808594 22.492188 " clip-rule="nonzero"/></clipPath><clipPath id="7dc9f857ab"><path d="M 76 29 L 81 29 L 81 32 L 76 32 Z M 76 29 " clip-rule="nonzero"/></clipPath><clipPath id="f031e5a629"><path d="M 67.808594 22.492188 L 98.203125 15.101562 L 101.019531 26.679688 L 70.625 34.070312 Z M 67.808594 22.492188 " clip-rule="nonzero"/></clipPath><clipPath id="569de109d2"><path d="M 67.808594 22.492188 L 98.203125 15.101562 L 101.019531 26.679688 L 70.625 34.070312 Z M 67.808594 22.492188 " clip-rule="nonzero"/></clipPath><clipPath id="8dc59f316e"><path d="M 76 28 L 81 28 L 81 33 L 76 33 Z M 76 28 " clip-rule="nonzero"/></clipPath><clipPath id="00885df1e8"><path d="M 67.808594 22.492188 L 98.203125 15.101562 L 101.019531 26.679688 L 70.625 34.070312 Z M 67.808594 22.492188 " clip-rule="nonzero"/></clipPath><clipPath id="10eff8d3be"><path d="M 67.808594 22.492188 L 98.203125 15.101562 L 101.019531 26.679688 L 70.625 34.070312 Z M 67.808594 22.492188 " clip-rule="nonzero"/></clipPath><clipPath id="002d27ee8b"><path d="M 78 29 L 80 29 L 80 31 L 78 31 Z M 78 29 " clip-rule="nonzero"/></clipPath><clipPath id="885b9b47db"><path d="M 67.808594 22.492188 L 98.203125 15.101562 L 101.019531 26.679688 L 70.625 34.070312 Z M 67.808594 22.492188 " clip-rule="nonzero"/></clipPath><clipPath id="5466dd30ec"><path d="M 67.808594 22.492188 L 98.203125 15.101562 L 101.019531 26.679688 L 70.625 34.070312 Z M 67.808594 22.492188 " clip-rule="nonzero"/></clipPath><clipPath id="54426bd24a"><path d="M 68 15 L 101 15 L 101 33 L 68 33 Z M 68 15 " clip-rule="nonzero"/></clipPath><clipPath id="d99e52d2be"><path d="M 67.808594 22.492188 L 98.203125 15.101562 L 101.019531 26.679688 L 70.625 34.070312 Z M 67.808594 22.492188 " clip-rule="nonzero"/></clipPath><clipPath id="6e76dbc404"><path d="M 67.808594 22.492188 L 98.203125 15.101562 L 101.019531 26.679688 L 70.625 34.070312 Z M 67.808594 22.492188 " clip-rule="nonzero"/></clipPath><clipPath id="d03cd860a8"><path d="M 35 68.253906 L 134 68.253906 L 134 69.742188 L 35 69.742188 Z M 35 68.253906 " clip-rule="nonzero"/></clipPath><clipPath id="b24b322154"><rect x="0" width="116" y="0" height="26"/></clipPath></defs><path fill="#ffffff" d="M 62.824219 34.183594 C 62.820312 34.03125 62.816406 33.878906 62.816406 33.722656 C 62.816406 19.457031 74.382812 7.894531 88.648438 7.894531 C 93.183594 7.894531 97.441406 9.0625 101.148438 11.117188 C 96.527344 7.742188 90.835938 5.75 84.675781 5.75 C 69.398438 5.75 56.988281 17.996094 56.710938 33.207031 C 58.628906 33.664062 60.671875 33.988281 62.824219 34.183594 " fill-opacity="1" fill-rule="nonzero"/><g clip-path="url(#4d436dc71d)"><path fill="#ffffff" d="M 88.648438 59.554688 C 83.277344 59.554688 78.289062 57.914062 74.160156 55.109375 C 73.214844 55.046875 72.285156 55.003906 71.382812 55.003906 C 71.378906 55.003906 69.046875 55.382812 67.324219 55.664062 C 72.09375 59.441406 78.121094 61.695312 84.675781 61.695312 C 90.835938 61.695312 96.527344 59.703125 101.148438 56.332031 C 97.441406 58.386719 93.183594 59.554688 88.648438 59.554688 Z M 63.355469 38.984375 C 61.152344 38.867188 59.050781 38.613281 57.066406 38.230469 C 57.699219 42.125 59.132812 45.75 61.195312 48.929688 L 63.621094 49.6875 C 65.332031 50.222656 67.21875 50.589844 69.25 50.78125 C 66.351562 47.484375 64.277344 43.445312 63.355469 38.984375 " fill-opacity="1" fill-rule="nonzero"/></g><path fill="#ffffff" d="M 90.1875 52.769531 C 104.363281 47.609375 114.460938 38.09375 115.742188 29.617188 C 112.679688 37.128906 103.449219 44.890625 91.144531 49.371094 C 80.644531 53.195312 70.320312 53.75 63.0625 51.476562 C 64.449219 53.167969 66.03125 54.6875 67.777344 56.015625 C 74.292969 56.699219 82.1875 55.683594 90.1875 52.769531 " fill-opacity="1" fill-rule="nonzero"/><path fill="#ffffff" d="M 92.890625 31.898438 C 69.152344 40.542969 46.074219 37.019531 41.34375 24.03125 C 40.492188 21.6875 40.292969 19.199219 40.683594 16.640625 C 38.976562 20.824219 38.664062 24.949219 40.03125 28.699219 C 44.761719 41.6875 67.835938 45.207031 91.574219 36.5625 C 111.03125 29.480469 124.894531 16.417969 126.652344 4.785156 C 122.449219 15.097656 109.777344 25.746094 92.890625 31.898438 " fill-opacity="1" fill-rule="nonzero"/><g clip-path="url(#b3e10e38f9)"><g clip-path="url(#2b15a96d0f)"><g clip-path="url(#6b6400689a)"><path fill="#ffffff" d="M 92.445312 27.273438 C 92.429688 27.238281 92.417969 27.199219 92.402344 27.160156 C 92.417969 27.199219 92.429688 27.238281 92.445312 27.273438 Z M 92.355469 27.003906 C 92.367188 27.042969 92.378906 27.082031 92.390625 27.121094 C 92.378906 27.082031 92.367188 27.042969 92.355469 27.003906 " fill-opacity="1" fill-rule="nonzero"/></g></g></g><g clip-path="url(#1641fe915a)"><g clip-path="url(#b30b88b2fe)"><g clip-path="url(#8c61afda72)"><path fill="#ffffff" d="M 93.3125 26.734375 C 93.296875 26.671875 93.285156 26.609375 93.28125 26.546875 L 93.28125 26.53125 C 93.246094 25.984375 93.609375 25.476562 94.160156 25.339844 C 94.714844 25.207031 95.273438 25.5 95.492188 26.007812 C 95.515625 26.066406 95.535156 26.125 95.550781 26.1875 C 95.554688 26.203125 95.558594 26.222656 95.5625 26.238281 C 95.570312 26.28125 95.578125 26.324219 95.582031 26.371094 C 95.625 26.925781 95.261719 27.445312 94.703125 27.582031 C 94.148438 27.714844 93.589844 27.421875 93.371094 26.914062 C 93.347656 26.855469 93.328125 26.796875 93.3125 26.734375 Z M 92.539062 26.921875 C 92.566406 27.027344 92.601562 27.128906 92.640625 27.226562 C 93.007812 28.085938 93.953125 28.578125 94.890625 28.351562 C 95.832031 28.121094 96.445312 27.242188 96.371094 26.304688 C 96.363281 26.230469 96.355469 26.15625 96.339844 26.082031 C 96.335938 26.054688 96.328125 26.027344 96.320312 26 C 96.296875 25.894531 96.261719 25.792969 96.222656 25.699219 C 95.855469 24.835938 94.910156 24.34375 93.972656 24.570312 C 93.039062 24.796875 92.429688 25.65625 92.488281 26.582031 C 92.488281 26.589844 92.492188 26.597656 92.492188 26.605469 C 92.5 26.710938 92.515625 26.816406 92.539062 26.921875 " fill-opacity="1" fill-rule="nonzero"/></g></g></g><g clip-path="url(#2d4dc7f8ac)"><g clip-path="url(#ece37c850a)"><g clip-path="url(#5874b2c8ee)"><path fill="#ffffff" d="M 93.972656 26.570312 C 93.980469 26.597656 93.988281 26.621094 94 26.644531 C 94.085938 26.855469 94.316406 26.972656 94.542969 26.917969 C 94.769531 26.863281 94.917969 26.648438 94.898438 26.421875 C 94.898438 26.40625 94.894531 26.386719 94.894531 26.371094 C 94.890625 26.363281 94.890625 26.355469 94.886719 26.351562 C 94.882812 26.324219 94.875 26.300781 94.863281 26.277344 C 94.777344 26.070312 94.546875 25.949219 94.320312 26.003906 C 94.09375 26.058594 93.949219 26.265625 93.960938 26.492188 L 93.960938 26.496094 C 93.964844 26.519531 93.96875 26.546875 93.972656 26.570312 " fill-opacity="1" fill-rule="nonzero"/></g></g></g><g clip-path="url(#7dc9f857ab)"><g clip-path="url(#f031e5a629)"><g clip-path="url(#569de109d2)"><path fill="#ffffff" d="M 80.820312 29.863281 C 80.839844 29.953125 80.851562 30.042969 80.855469 30.132812 L 80.859375 30.132812 C 80.851562 30.042969 80.839844 29.953125 80.820312 29.867188 C 80.816406 29.835938 80.808594 29.804688 80.800781 29.777344 C 80.808594 29.804688 80.816406 29.832031 80.820312 29.863281 Z M 76.640625 30.820312 C 76.667969 30.925781 76.703125 31.027344 76.746094 31.128906 C 76.746094 31.128906 76.675781 30.941406 76.640625 30.820312 Z M 76.632812 30.789062 C 76.632812 30.800781 76.636719 30.808594 76.640625 30.820312 C 76.636719 30.808594 76.636719 30.800781 76.632812 30.789062 " fill-opacity="1" fill-rule="nonzero"/></g></g></g><g clip-path="url(#8dc59f316e)"><g clip-path="url(#00885df1e8)"><g clip-path="url(#10eff8d3be)"><path fill="#ffffff" d="M 77.597656 30.554688 C 77.582031 30.492188 77.574219 30.429688 77.566406 30.367188 L 77.566406 30.355469 C 77.53125 29.808594 77.894531 29.296875 78.445312 29.164062 C 79 29.027344 79.5625 29.320312 79.777344 29.832031 C 79.800781 29.886719 79.820312 29.949219 79.835938 30.011719 C 79.839844 30.027344 79.84375 30.042969 79.847656 30.058594 C 79.855469 30.101562 79.863281 30.148438 79.867188 30.191406 C 79.910156 30.746094 79.546875 31.265625 78.988281 31.402344 C 78.433594 31.539062 77.875 31.246094 77.65625 30.734375 C 77.632812 30.679688 77.613281 30.617188 77.597656 30.554688 Z M 76.828125 30.742188 C 76.855469 30.863281 76.894531 30.976562 76.945312 31.082031 C 77.320312 31.921875 78.253906 32.398438 79.175781 32.171875 C 80.101562 31.949219 80.707031 31.097656 80.660156 30.183594 C 80.65625 30.089844 80.644531 30 80.625 29.90625 C 80.621094 29.878906 80.613281 29.851562 80.609375 29.824219 C 80.582031 29.71875 80.546875 29.617188 80.507812 29.519531 C 80.140625 28.660156 79.195312 28.164062 78.257812 28.390625 C 77.328125 28.617188 76.714844 29.480469 76.773438 30.402344 C 76.777344 30.410156 76.777344 30.417969 76.777344 30.425781 C 76.785156 30.53125 76.800781 30.636719 76.828125 30.742188 " fill-opacity="1" fill-rule="nonzero"/></g></g></g><g clip-path="url(#002d27ee8b)"><g clip-path="url(#885b9b47db)"><g clip-path="url(#5466dd30ec)"><path fill="#ffffff" d="M 78.261719 30.394531 C 78.265625 30.417969 78.273438 30.445312 78.285156 30.46875 C 78.375 30.675781 78.601562 30.796875 78.828125 30.738281 C 79.054688 30.683594 79.203125 30.472656 79.1875 30.246094 C 79.183594 30.226562 79.183594 30.210938 79.179688 30.191406 C 79.175781 30.183594 79.175781 30.179688 79.175781 30.171875 C 79.167969 30.144531 79.160156 30.121094 79.148438 30.097656 C 79.0625 29.890625 78.832031 29.769531 78.605469 29.824219 C 78.382812 29.878906 78.234375 30.089844 78.246094 30.3125 L 78.25 30.316406 C 78.25 30.34375 78.253906 30.367188 78.261719 30.394531 " fill-opacity="1" fill-rule="nonzero"/></g></g></g><g clip-path="url(#54426bd24a)"><g clip-path="url(#d99e52d2be)"><g clip-path="url(#6e76dbc404)"><path fill="#ffffff" d="M 69.972656 23.542969 C 69.917969 23.316406 70.097656 23.054688 70.367188 22.988281 L 75.125 21.832031 C 75.394531 21.765625 75.6875 21.910156 75.742188 22.140625 L 76.167969 23.894531 C 76.226562 24.121094 76.027344 24.371094 75.757812 24.433594 L 71 25.589844 C 70.730469 25.65625 70.453125 25.527344 70.398438 25.296875 Z M 76.402344 22.011719 C 76.34375 21.78125 76.550781 21.515625 76.820312 21.449219 L 81.578125 20.292969 C 81.847656 20.226562 82.117188 20.378906 82.171875 20.605469 L 82.597656 22.363281 C 82.652344 22.589844 82.480469 22.832031 82.210938 22.894531 L 77.453125 24.054688 C 77.183594 24.117188 76.882812 23.992188 76.828125 23.765625 Z M 82.8125 20.449219 C 82.757812 20.222656 82.941406 19.960938 83.210938 19.894531 L 87.96875 18.738281 C 88.238281 18.671875 88.507812 18.824219 88.566406 19.050781 L 88.992188 20.808594 C 89.046875 21.035156 88.871094 21.277344 88.601562 21.34375 L 83.84375 22.5 C 83.574219 22.566406 83.296875 22.433594 83.238281 22.207031 Z M 89.207031 18.894531 C 89.148438 18.667969 89.382812 18.394531 89.691406 18.320312 L 95.09375 17.003906 C 95.398438 16.929688 95.660156 17.085938 95.714844 17.3125 L 96.722656 21.460938 C 96.738281 21.527344 96.660156 21.574219 96.609375 21.527344 C 96.289062 21.214844 95.570312 20.519531 94.921875 19.933594 C 94.851562 19.871094 94.753906 19.84375 94.660156 19.867188 L 90.324219 20.921875 C 90.015625 20.996094 89.6875 20.878906 89.632812 20.652344 Z M 96.675781 18.644531 C 96.640625 18.488281 96.734375 18.273438 96.925781 18.226562 L 97.488281 18.089844 C 97.582031 18.066406 97.683594 18.09375 97.75 18.160156 C 98.203125 18.613281 99.09375 20.402344 99.308594 22.171875 C 99.324219 22.289062 99.222656 22.390625 99.105469 22.382812 C 98.773438 22.359375 98.144531 22.078125 97.738281 21.925781 C 97.554688 21.855469 97.417969 21.699219 97.375 21.511719 Z M 70.113281 31.429688 C 70.324219 32.039062 70.890625 32.21875 71.371094 32.199219 C 72.277344 32.164062 76.6875 31.140625 76.746094 31.128906 C 76.746094 31.128906 76.675781 30.941406 76.640625 30.820312 C 76.636719 30.808594 76.636719 30.800781 76.632812 30.789062 L 76.632812 30.785156 C 76.628906 30.773438 76.625 30.757812 76.621094 30.746094 C 76.597656 30.644531 76.582031 30.539062 76.578125 30.4375 C 76.574219 30.429688 76.574219 30.421875 76.574219 30.414062 C 76.507812 29.375 77.195312 28.441406 78.210938 28.195312 C 78.707031 28.074219 79.230469 28.132812 79.6875 28.367188 C 80.136719 28.59375 80.492188 28.976562 80.691406 29.4375 C 80.730469 29.535156 80.765625 29.632812 80.792969 29.734375 C 80.792969 29.746094 80.796875 29.757812 80.800781 29.773438 L 80.800781 29.777344 C 80.808594 29.804688 80.816406 29.832031 80.820312 29.863281 C 80.839844 29.953125 80.851562 30.042969 80.855469 30.132812 L 80.859375 30.132812 L 92.445312 27.273438 C 92.429688 27.238281 92.417969 27.199219 92.402344 27.160156 C 92.398438 27.148438 92.394531 27.136719 92.390625 27.121094 C 92.378906 27.082031 92.367188 27.042969 92.355469 27.003906 C 92.351562 26.992188 92.347656 26.976562 92.34375 26.964844 C 92.34375 26.949219 92.339844 26.9375 92.335938 26.925781 C 92.3125 26.824219 92.296875 26.71875 92.289062 26.617188 L 92.289062 26.605469 C 92.289062 26.601562 92.289062 26.59375 92.289062 26.585938 C 92.222656 25.550781 92.910156 24.617188 93.921875 24.371094 C 94.421875 24.25 94.945312 24.3125 95.402344 24.542969 C 95.851562 24.773438 96.207031 25.152344 96.402344 25.617188 C 96.445312 25.710938 96.480469 25.808594 96.503906 25.910156 C 96.507812 25.921875 96.511719 25.9375 96.515625 25.949219 C 96.515625 25.957031 96.519531 25.96875 96.519531 25.976562 C 96.527344 25.996094 96.53125 26.019531 96.535156 26.042969 C 96.550781 26.125 96.5625 26.207031 96.570312 26.289062 L 96.570312 26.296875 L 99.796875 25.523438 C 100.089844 25.453125 100.265625 25.160156 100.195312 24.871094 L 99.585938 21.839844 C 99.363281 20.730469 98.996094 19.65625 98.480469 18.648438 C 97.75 17.222656 96.746094 16.253906 96.671875 16.183594 C 96.53125 16.039062 96.371094 15.910156 96.179688 15.839844 C 95.773438 15.691406 95.320312 15.824219 94.917969 15.917969 C 94.691406 15.964844 69.105469 22.183594 68.957031 22.230469 C 68.894531 22.25 68.820312 22.265625 68.761719 22.296875 C 68.316406 22.546875 68.085938 23.058594 68.191406 23.558594 C 68.640625 25.6875 70.113281 31.429688 70.113281 31.429688 " fill-opacity="1" fill-rule="nonzero"/></g></g></g><g clip-path="url(#d03cd860a8)"><path fill="#ffffff" d="M 132.871094 69.921875 L 132.695312 69.921875 C 132.25 69.921875 131.890625 69.550781 131.890625 69.09375 C 131.890625 68.632812 132.25 68.265625 132.695312 68.265625 L 132.871094 68.265625 C 133.316406 68.265625 133.675781 68.632812 133.675781 69.09375 C 133.675781 69.550781 133.316406 69.921875 132.871094 69.921875 Z M 127.175781 69.921875 L 126.996094 69.921875 C 126.554688 69.921875 126.195312 69.550781 126.195312 69.09375 C 126.195312 68.632812 126.554688 68.265625 126.996094 68.265625 L 127.175781 68.265625 C 127.617188 68.265625 127.976562 68.632812 127.976562 69.09375 C 127.976562 69.550781 127.617188 69.921875 127.175781 69.921875 Z M 121.480469 69.921875 L 121.304688 69.921875 C 120.859375 69.921875 120.5 69.550781 120.5 69.09375 C 120.5 68.632812 120.859375 68.265625 121.304688 68.265625 L 121.480469 68.265625 C 121.921875 68.265625 122.28125 68.632812 122.28125 69.09375 C 122.28125 69.550781 121.921875 69.921875 121.480469 69.921875 Z M 115.785156 69.921875 L 115.605469 69.921875 C 115.164062 69.921875 114.804688 69.550781 114.804688 69.09375 C 114.804688 68.632812 115.164062 68.265625 115.605469 68.265625 L 115.785156 68.265625 C 116.226562 68.265625 116.585938 68.632812 116.585938 69.09375 C 116.585938 69.550781 116.226562 69.921875 115.785156 69.921875 Z M 110.089844 69.921875 L 109.910156 69.921875 C 109.46875 69.921875 109.109375 69.550781 109.109375 69.09375 C 109.109375 68.632812 109.46875 68.265625 109.910156 68.265625 L 110.089844 68.265625 C 110.53125 68.265625 110.890625 68.632812 110.890625 69.09375 C 110.890625 69.550781 110.53125 69.921875 110.089844 69.921875 Z M 104.390625 69.921875 L 104.210938 69.921875 C 103.769531 69.921875 103.410156 69.550781 103.410156 69.09375 C 103.410156 68.632812 103.769531 68.265625 104.210938 68.265625 L 104.390625 68.265625 C 104.832031 68.265625 105.191406 68.632812 105.191406 69.09375 C 105.191406 69.550781 104.832031 69.921875 104.390625 69.921875 Z M 98.695312 69.921875 L 98.515625 69.921875 C 98.074219 69.921875 97.714844 69.550781 97.714844 69.09375 C 97.714844 68.632812 98.074219 68.265625 98.515625 68.265625 L 98.695312 68.265625 C 99.136719 68.265625 99.496094 68.632812 99.496094 69.09375 C 99.496094 69.550781 99.136719 69.921875 98.695312 69.921875 Z M 92.996094 69.921875 L 92.820312 69.921875 C 92.378906 69.921875 92.019531 69.550781 92.019531 69.09375 C 92.019531 68.632812 92.378906 68.265625 92.820312 68.265625 L 92.996094 68.265625 C 93.441406 68.265625 93.800781 68.632812 93.800781 69.09375 C 93.800781 69.550781 93.441406 69.921875 92.996094 69.921875 Z M 87.300781 69.921875 L 87.121094 69.921875 C 86.679688 69.921875 86.320312 69.550781 86.320312 69.09375 C 86.320312 68.632812 86.679688 68.265625 87.121094 68.265625 L 87.300781 68.265625 C 87.742188 68.265625 88.101562 68.632812 88.101562 69.09375 C 88.101562 69.550781 87.746094 69.921875 87.300781 69.921875 Z M 81.605469 69.921875 L 81.429688 69.921875 C 80.984375 69.921875 80.625 69.550781 80.625 69.09375 C 80.625 68.632812 80.984375 68.265625 81.429688 68.265625 L 81.605469 68.265625 C 82.050781 68.265625 82.410156 68.632812 82.410156 69.09375 C 82.40625 69.550781 82.050781 69.921875 81.605469 69.921875 Z M 75.910156 69.921875 L 75.730469 69.921875 C 75.289062 69.921875 74.929688 69.550781 74.929688 69.09375 C 74.929688 68.632812 75.289062 68.265625 75.730469 68.265625 L 75.910156 68.265625 C 76.351562 68.265625 76.710938 68.632812 76.710938 69.09375 C 76.710938 69.550781 76.351562 69.921875 75.910156 69.921875 Z M 70.214844 69.921875 L 70.035156 69.921875 C 69.59375 69.921875 69.234375 69.550781 69.234375 69.09375 C 69.234375 68.632812 69.59375 68.265625 70.035156 68.265625 L 70.214844 68.265625 C 70.65625 68.265625 71.015625 68.632812 71.015625 69.09375 C 71.015625 69.550781 70.65625 69.921875 70.214844 69.921875 Z M 64.515625 69.921875 L 64.339844 69.921875 C 63.894531 69.921875 63.535156 69.550781 63.535156 69.09375 C 63.535156 68.632812 63.894531 68.265625 64.339844 68.265625 L 64.515625 68.265625 C 64.957031 68.265625 65.320312 68.632812 65.320312 69.09375 C 65.320312 69.550781 64.957031 69.921875 64.515625 69.921875 Z M 58.820312 69.921875 L 58.640625 69.921875 C 58.199219 69.921875 57.839844 69.550781 57.839844 69.09375 C 57.839844 68.632812 58.199219 68.265625 58.640625 68.265625 L 58.820312 68.265625 C 59.261719 68.265625 59.621094 68.632812 59.621094 69.09375 C 59.621094 69.550781 59.261719 69.921875 58.820312 69.921875 Z M 53.125 69.921875 L 52.945312 69.921875 C 52.503906 69.921875 52.144531 69.550781 52.144531 69.09375 C 52.144531 68.632812 52.503906 68.265625 52.945312 68.265625 L 53.125 68.265625 C 53.566406 68.265625 53.925781 68.632812 53.925781 69.09375 C 53.925781 69.550781 53.566406 69.921875 53.125 69.921875 Z M 47.429688 69.921875 L 47.25 69.921875 C 46.808594 69.921875 46.449219 69.550781 46.449219 69.09375 C 46.449219 68.632812 46.808594 68.265625 47.25 68.265625 L 47.429688 68.265625 C 47.871094 68.265625 48.230469 68.632812 48.230469 69.09375 C 48.226562 69.550781 47.871094 69.921875 47.429688 69.921875 Z M 41.730469 69.921875 L 41.554688 69.921875 C 41.113281 69.921875 40.753906 69.550781 40.753906 69.09375 C 40.753906 68.632812 41.113281 68.265625 41.554688 68.265625 L 41.730469 68.265625 C 42.175781 68.265625 42.535156 68.632812 42.535156 69.09375 C 42.535156 69.550781 42.175781 69.921875 41.730469 69.921875 Z M 36.035156 69.921875 L 35.855469 69.921875 C 35.414062 69.921875 35.054688 69.550781 35.054688 69.09375 C 35.054688 68.632812 35.414062 68.265625 35.855469 68.265625 L 36.035156 68.265625 C 36.476562 68.265625 36.835938 68.632812 36.835938 69.09375 C 36.835938 69.550781 36.476562 69.921875 36.035156 69.921875 Z M 36.035156 69.921875 " fill-opacity="1" fill-rule="nonzero"/></g><g transform="matrix(1, 0, 0, 1, 28, 75)"><g clip-path="url(#b24b322154)"><g fill="#ffffff" fill-opacity="1"><g transform="translate(0.64434, 18.197198)"><g><path d="M 0.4375 -7.90625 C 0.4375 -10.1875 1.210938 -12.117188 2.765625 -13.703125 C 4.328125 -15.285156 6.207031 -16.078125 8.40625 -16.078125 C 10.613281 -16.078125 12.488281 -15.285156 14.03125 -13.703125 C 15.570312 -12.128906 16.34375 -10.195312 16.34375 -7.90625 C 16.34375 -5.59375 15.582031 -3.648438 14.0625 -2.078125 C 12.550781 -0.503906 10.664062 0.28125 8.40625 0.28125 C 6.09375 0.28125 4.1875 -0.5 2.6875 -2.0625 C 1.1875 -3.625 0.4375 -5.570312 0.4375 -7.90625 Z M 4.328125 -7.90625 C 4.328125 -7.070312 4.453125 -6.3125 4.703125 -5.625 C 4.960938 -4.945312 5.410156 -4.375 6.046875 -3.90625 C 6.679688 -3.4375 7.46875 -3.203125 8.40625 -3.203125 C 9.738281 -3.203125 10.742188 -3.660156 11.421875 -4.578125 C 12.109375 -5.492188 12.453125 -6.601562 12.453125 -7.90625 C 12.453125 -9.195312 12.101562 -10.300781 11.40625 -11.21875 C 10.71875 -12.144531 9.71875 -12.609375 8.40625 -12.609375 C 7.101562 -12.609375 6.097656 -12.144531 5.390625 -11.21875 C 4.679688 -10.300781 4.328125 -9.195312 4.328125 -7.90625 Z M 4.328125 -7.90625 "/></g></g></g><g fill="#ffffff" fill-opacity="1"><g transform="translate(20.230905, 18.197198)"><g><path d="M 4.75 -9.796875 L 4.75 0 L 1.15625 0 L 1.15625 -15.796875 L 4.75 -15.796875 L 11.03125 -5.984375 L 11.0625 -5.984375 L 11.0625 -15.796875 L 14.65625 -15.796875 L 14.65625 0 L 11.0625 0 L 4.78125 -9.796875 Z M 4.75 -9.796875 "/></g></g></g><g fill="#ffffff" fill-opacity="1"><g transform="translate(38.841026, 18.197198)"><g><path d="M 4.75 -15.796875 L 4.75 0 L 1.15625 0 L 1.15625 -15.796875 Z M 4.75 -15.796875 "/></g></g></g><g fill="#ffffff" fill-opacity="1"><g transform="translate(47.533557, 18.197198)"><g><path d="M 0.15625 -12.640625 L 0.15625 -15.796875 L 11.25 -15.796875 L 11.25 -12.640625 L 7.5 -12.640625 L 7.5 0 L 3.90625 0 L 3.90625 -12.640625 Z M 0.15625 -12.640625 "/></g></g></g><g fill="#ffffff" fill-opacity="1"><g transform="translate(61.740119, 18.197198)"><g><path d="M 0.4375 -7.90625 C 0.4375 -10.1875 1.210938 -12.117188 2.765625 -13.703125 C 4.328125 -15.285156 6.207031 -16.078125 8.40625 -16.078125 C 10.613281 -16.078125 12.488281 -15.285156 14.03125 -13.703125 C 15.570312 -12.128906 16.34375 -10.195312 16.34375 -7.90625 C 16.34375 -5.59375 15.582031 -3.648438 14.0625 -2.078125 C 12.550781 -0.503906 10.664062 0.28125 8.40625 0.28125 C 6.09375 0.28125 4.1875 -0.5 2.6875 -2.0625 C 1.1875 -3.625 0.4375 -5.570312 0.4375 -7.90625 Z M 4.328125 -7.90625 C 4.328125 -7.070312 4.453125 -6.3125 4.703125 -5.625 C 4.960938 -4.945312 5.410156 -4.375 6.046875 -3.90625 C 6.679688 -3.4375 7.46875 -3.203125 8.40625 -3.203125 C 9.738281 -3.203125 10.742188 -3.660156 11.421875 -4.578125 C 12.109375 -5.492188 12.453125 -6.601562 12.453125 -7.90625 C 12.453125 -9.195312 12.101562 -10.300781 11.40625 -11.21875 C 10.71875 -12.144531 9.71875 -12.609375 8.40625 -12.609375 C 7.101562 -12.609375 6.097656 -12.144531 5.390625 -11.21875 C 4.679688 -10.300781 4.328125 -9.195312 4.328125 -7.90625 Z M 4.328125 -7.90625 "/></g></g></g><g fill="#ffffff" fill-opacity="1"><g transform="translate(81.326681, 18.197198)"><g><path d="M 13.28125 -15.796875 L 13.28125 -5.609375 C 13.28125 -3.671875 12.753906 -2.203125 11.703125 -1.203125 C 10.660156 -0.210938 9.128906 0.28125 7.109375 0.28125 C 5.097656 0.28125 3.566406 -0.210938 2.515625 -1.203125 C 1.472656 -2.203125 0.953125 -3.671875 0.953125 -5.609375 L 0.953125 -15.796875 L 4.5625 -15.796875 L 4.5625 -6.65625 C 4.5625 -5.382812 4.757812 -4.5 5.15625 -4 C 5.5625 -3.5 6.21875 -3.25 7.125 -3.25 C 8.03125 -3.25 8.679688 -3.5 9.078125 -4 C 9.484375 -4.5 9.6875 -5.382812 9.6875 -6.65625 L 9.6875 -15.796875 Z M 13.28125 -15.796875 "/></g></g></g><g fill="#ffffff" fill-opacity="1"><g transform="translate(98.366836, 18.197198)"><g><path d="M 1.15625 -15.796875 L 6.796875 -15.796875 C 8.316406 -15.796875 9.550781 -15.390625 10.5 -14.578125 C 11.457031 -13.765625 11.9375 -12.609375 11.9375 -11.109375 C 11.9375 -9.941406 11.644531 -8.960938 11.0625 -8.171875 C 10.488281 -7.390625 9.703125 -6.84375 8.703125 -6.53125 L 14.140625 0 L 9.578125 0 L 4.75 -6.234375 L 4.75 0 L 1.15625 0 Z M 4.75 -8.78125 L 5.171875 -8.78125 C 5.503906 -8.78125 5.785156 -8.785156 6.015625 -8.796875 C 6.242188 -8.816406 6.503906 -8.863281 6.796875 -8.9375 C 7.085938 -9.007812 7.320312 -9.113281 7.5 -9.25 C 7.675781 -9.394531 7.828125 -9.601562 7.953125 -9.875 C 8.085938 -10.144531 8.15625 -10.46875 8.15625 -10.84375 C 8.15625 -11.226562 8.085938 -11.554688 7.953125 -11.828125 C 7.828125 -12.097656 7.675781 -12.300781 7.5 -12.4375 C 7.320312 -12.582031 7.085938 -12.691406 6.796875 -12.765625 C 6.503906 -12.835938 6.242188 -12.878906 6.015625 -12.890625 C 5.785156 -12.910156 5.503906 -12.921875 5.171875 -12.921875 L 4.75 -12.921875 Z M 4.75 -8.78125 "/></g></g></g></g></g></svg>