<svg xmlns="http://www.w3.org/2000/svg" xmlns:xlink="http://www.w3.org/1999/xlink" width="83" zoomAndPan="magnify" viewBox="0 0 62.25 42" height="56" preserveAspectRatio="xMidYMid meet" version="1.0"><defs><clipPath id="369a785872"><path d="M 0.359375 3 L 59 3 L 59 28 L 0.359375 28 Z M 0.359375 3 " clip-rule="nonzero"/></clipPath><clipPath id="fb754cb8c3"><path d="M 36 17 L 37 17 L 37 19 L 36 19 Z M 36 17 " clip-rule="nonzero"/></clipPath><clipPath id="2275f36b83"><path d="M 19.714844 14.9375 L 39.644531 10.089844 L 41.550781 17.921875 L 21.621094 22.769531 Z M 19.714844 14.9375 " clip-rule="nonzero"/></clipPath><clipPath id="72471d1a19"><path d="M 19.714844 14.9375 L 39.644531 10.089844 L 41.550781 17.921875 L 21.621094 22.769531 Z M 19.714844 14.9375 " clip-rule="nonzero"/></clipPath><clipPath id="7dcc30444e"><path d="M 36 16 L 39 16 L 39 19 L 36 19 Z M 36 16 " clip-rule="nonzero"/></clipPath><clipPath id="b7d2375e91"><path d="M 19.714844 14.9375 L 39.644531 10.089844 L 41.550781 17.921875 L 21.621094 22.769531 Z M 19.714844 14.9375 " clip-rule="nonzero"/></clipPath><clipPath id="bef68f501b"><path d="M 19.714844 14.9375 L 39.644531 10.089844 L 41.550781 17.921875 L 21.621094 22.769531 Z M 19.714844 14.9375 " clip-rule="nonzero"/></clipPath><clipPath id="6700f33901"><path d="M 37 17 L 38 17 L 38 18 L 37 18 Z M 37 17 " clip-rule="nonzero"/></clipPath><clipPath id="ff8e3c99fd"><path d="M 19.714844 14.9375 L 39.644531 10.089844 L 41.550781 17.921875 L 21.621094 22.769531 Z M 19.714844 14.9375 " clip-rule="nonzero"/></clipPath><clipPath id="41ed12c5ac"><path d="M 19.714844 14.9375 L 39.644531 10.089844 L 41.550781 17.921875 L 21.621094 22.769531 Z M 19.714844 14.9375 " clip-rule="nonzero"/></clipPath><clipPath id="c81111e813"><path d="M 25 19 L 29 19 L 29 21 L 25 21 Z M 25 19 " clip-rule="nonzero"/></clipPath><clipPath id="26a96516e3"><path d="M 19.714844 14.9375 L 39.644531 10.089844 L 41.550781 17.921875 L 21.621094 22.769531 Z M 19.714844 14.9375 " clip-rule="nonzero"/></clipPath><clipPath id="6560ccb055"><path d="M 19.714844 14.9375 L 39.644531 10.089844 L 41.550781 17.921875 L 21.621094 22.769531 Z M 19.714844 14.9375 " clip-rule="nonzero"/></clipPath><clipPath id="6bcf8c1098"><path d="M 25 18 L 29 18 L 29 22 L 25 22 Z M 25 18 " clip-rule="nonzero"/></clipPath><clipPath id="d65ceb061e"><path d="M 19.714844 14.9375 L 39.644531 10.089844 L 41.550781 17.921875 L 21.621094 22.769531 Z M 19.714844 14.9375 " clip-rule="nonzero"/></clipPath><clipPath id="4d51a788cc"><path d="M 19.714844 14.9375 L 39.644531 10.089844 L 41.550781 17.921875 L 21.621094 22.769531 Z M 19.714844 14.9375 " clip-rule="nonzero"/></clipPath><clipPath id="cca9d5b299"><path d="M 26 19 L 28 19 L 28 21 L 26 21 Z M 26 19 " clip-rule="nonzero"/></clipPath><clipPath id="4a8f875167"><path d="M 19.714844 14.9375 L 39.644531 10.089844 L 41.550781 17.921875 L 21.621094 22.769531 Z M 19.714844 14.9375 " clip-rule="nonzero"/></clipPath><clipPath id="b9cfe2fff8"><path d="M 19.714844 14.9375 L 39.644531 10.089844 L 41.550781 17.921875 L 21.621094 22.769531 Z M 19.714844 14.9375 " clip-rule="nonzero"/></clipPath><clipPath id="f0cd9c00d6"><path d="M 19 10 L 42 10 L 42 22 L 19 22 Z M 19 10 " clip-rule="nonzero"/></clipPath><clipPath id="e01e88dd30"><path d="M 19.714844 14.9375 L 39.644531 10.089844 L 41.550781 17.921875 L 21.621094 22.769531 Z M 19.714844 14.9375 " clip-rule="nonzero"/></clipPath><clipPath id="44edec7583"><path d="M 19.714844 14.9375 L 39.644531 10.089844 L 41.550781 17.921875 L 21.621094 22.769531 Z M 19.714844 14.9375 " clip-rule="nonzero"/></clipPath></defs><path fill="#7ed957" d="M 16.402344 22.703125 C 16.402344 22.601562 16.398438 22.5 16.398438 22.398438 C 16.398438 12.925781 24.078125 5.242188 33.554688 5.242188 C 36.5625 5.242188 39.394531 6.019531 41.851562 7.382812 C 38.785156 5.144531 35.003906 3.820312 30.914062 3.820312 C 20.769531 3.820312 12.527344 11.953125 12.34375 22.054688 C 13.617188 22.355469 14.976562 22.574219 16.402344 22.703125 " fill-opacity="1" fill-rule="nonzero"/><path fill="#7ed957" d="M 33.554688 39.550781 C 29.988281 39.550781 26.675781 38.460938 23.929688 36.597656 C 23.304688 36.554688 22.6875 36.527344 22.085938 36.527344 C 22.085938 36.527344 20.539062 36.78125 19.394531 36.96875 C 22.558594 39.476562 26.5625 40.972656 30.914062 40.972656 C 35.003906 40.972656 38.785156 39.648438 41.851562 37.410156 C 39.394531 38.773438 36.5625 39.550781 33.554688 39.550781 Z M 16.757812 25.890625 C 15.296875 25.8125 13.898438 25.644531 12.582031 25.390625 C 13 27.976562 13.953125 30.382812 15.324219 32.492188 L 16.933594 32.996094 C 18.070312 33.351562 19.320312 33.597656 20.671875 33.722656 C 18.746094 31.535156 17.371094 28.851562 16.757812 25.890625 " fill-opacity="1" fill-rule="nonzero"/><path fill="#7ed957" d="M 34.574219 35.046875 C 43.988281 31.617188 50.695312 25.296875 51.546875 19.671875 C 49.511719 24.660156 43.382812 29.8125 35.210938 32.789062 C 28.238281 35.328125 21.382812 35.695312 16.5625 34.1875 C 17.484375 35.308594 18.535156 36.320312 19.691406 37.199219 C 24.019531 37.652344 29.261719 36.980469 34.574219 35.046875 " fill-opacity="1" fill-rule="nonzero"/><g clip-path="url(#369a785872)"><path fill="#0097b2" d="M 36.371094 21.183594 C 20.605469 26.925781 5.28125 24.585938 2.140625 15.960938 C 1.574219 14.40625 1.441406 12.75 1.699219 11.050781 C 0.566406 13.828125 0.359375 16.570312 1.265625 19.058594 C 4.410156 27.683594 19.734375 30.023438 35.496094 24.28125 C 48.417969 19.578125 57.621094 10.90625 58.789062 3.179688 C 56 10.027344 47.585938 17.101562 36.371094 21.183594 " fill-opacity="1" fill-rule="nonzero"/></g><g clip-path="url(#fb754cb8c3)"><g clip-path="url(#2275f36b83)"><g clip-path="url(#72471d1a19)"><path fill="#0097b2" d="M 36.082031 18.117188 C 36.070312 18.09375 36.0625 18.066406 36.050781 18.042969 C 36.0625 18.066406 36.070312 18.09375 36.082031 18.117188 Z M 36.019531 17.9375 C 36.027344 17.964844 36.035156 17.992188 36.042969 18.015625 C 36.035156 17.992188 36.027344 17.964844 36.019531 17.9375 " fill-opacity="1" fill-rule="nonzero"/></g></g></g><g clip-path="url(#7dcc30444e)"><g clip-path="url(#b7d2375e91)"><g clip-path="url(#bef68f501b)"><path fill="#0097b2" d="M 36.65625 17.757812 C 36.644531 17.714844 36.640625 17.675781 36.636719 17.632812 L 36.636719 17.625 C 36.613281 17.261719 36.851562 16.921875 37.21875 16.832031 C 37.589844 16.742188 37.960938 16.9375 38.105469 17.277344 C 38.121094 17.3125 38.132812 17.355469 38.144531 17.394531 C 38.148438 17.40625 38.148438 17.417969 38.152344 17.429688 C 38.15625 17.457031 38.160156 17.488281 38.164062 17.515625 C 38.195312 17.886719 37.953125 18.230469 37.582031 18.320312 C 37.210938 18.410156 36.839844 18.214844 36.695312 17.878906 C 36.679688 17.839844 36.667969 17.800781 36.65625 17.757812 Z M 36.144531 17.882812 C 36.160156 17.953125 36.183594 18.019531 36.210938 18.085938 C 36.453125 18.65625 37.082031 18.984375 37.707031 18.832031 C 38.332031 18.679688 38.738281 18.097656 38.6875 17.472656 C 38.683594 17.425781 38.679688 17.375 38.667969 17.328125 C 38.664062 17.308594 38.660156 17.289062 38.65625 17.269531 C 38.640625 17.199219 38.617188 17.132812 38.589844 17.070312 C 38.347656 16.496094 37.71875 16.167969 37.09375 16.320312 C 36.476562 16.472656 36.070312 17.042969 36.109375 17.65625 C 36.109375 17.664062 36.109375 17.667969 36.109375 17.671875 C 36.117188 17.742188 36.125 17.8125 36.144531 17.882812 " fill-opacity="1" fill-rule="nonzero"/></g></g></g><g clip-path="url(#6700f33901)"><g clip-path="url(#ff8e3c99fd)"><g clip-path="url(#41ed12c5ac)"><path fill="#0097b2" d="M 37.097656 17.652344 C 37.101562 17.667969 37.105469 17.683594 37.113281 17.699219 C 37.171875 17.835938 37.324219 17.917969 37.472656 17.878906 C 37.625 17.84375 37.722656 17.703125 37.710938 17.550781 C 37.710938 17.539062 37.710938 17.527344 37.707031 17.515625 C 37.707031 17.511719 37.703125 17.507812 37.703125 17.503906 C 37.699219 17.484375 37.695312 17.46875 37.6875 17.453125 C 37.628906 17.316406 37.476562 17.238281 37.328125 17.273438 C 37.175781 17.308594 37.078125 17.449219 37.089844 17.597656 L 37.089844 17.601562 C 37.089844 17.617188 37.09375 17.632812 37.097656 17.652344 " fill-opacity="1" fill-rule="nonzero"/></g></g></g><g clip-path="url(#c81111e813)"><g clip-path="url(#26a96516e3)"><g clip-path="url(#6560ccb055)"><path fill="#0097b2" d="M 28.355469 19.835938 C 28.367188 19.898438 28.375 19.957031 28.378906 20.019531 C 28.375 19.957031 28.367188 19.898438 28.355469 19.839844 C 28.351562 19.820312 28.347656 19.800781 28.34375 19.78125 C 28.347656 19.800781 28.351562 19.816406 28.355469 19.835938 Z M 25.578125 20.472656 C 25.59375 20.542969 25.617188 20.613281 25.648438 20.679688 C 25.648438 20.679688 25.601562 20.554688 25.578125 20.472656 Z M 25.570312 20.453125 C 25.574219 20.460938 25.574219 20.464844 25.578125 20.472656 C 25.574219 20.464844 25.574219 20.460938 25.570312 20.453125 " fill-opacity="1" fill-rule="nonzero"/></g></g></g><g clip-path="url(#6bcf8c1098)"><g clip-path="url(#d65ceb061e)"><g clip-path="url(#4d51a788cc)"><path fill="#0097b2" d="M 26.214844 20.296875 C 26.203125 20.257812 26.195312 20.214844 26.191406 20.171875 L 26.191406 20.164062 C 26.167969 19.800781 26.410156 19.460938 26.777344 19.371094 C 27.144531 19.28125 27.519531 19.476562 27.660156 19.816406 C 27.679688 19.855469 27.691406 19.894531 27.703125 19.9375 C 27.703125 19.945312 27.707031 19.957031 27.707031 19.96875 C 27.714844 19.996094 27.71875 20.027344 27.722656 20.054688 C 27.75 20.425781 27.507812 20.769531 27.136719 20.859375 C 26.769531 20.949219 26.398438 20.757812 26.253906 20.417969 C 26.238281 20.378906 26.222656 20.339844 26.214844 20.296875 Z M 25.699219 20.421875 C 25.71875 20.5 25.746094 20.578125 25.777344 20.648438 C 26.027344 21.207031 26.648438 21.523438 27.261719 21.371094 C 27.875 21.222656 28.28125 20.660156 28.25 20.050781 C 28.246094 19.988281 28.238281 19.925781 28.226562 19.867188 C 28.222656 19.847656 28.21875 19.828125 28.214844 19.8125 C 28.195312 19.742188 28.175781 19.671875 28.148438 19.609375 C 27.902344 19.039062 27.277344 18.707031 26.652344 18.859375 C 26.03125 19.011719 25.628906 19.582031 25.667969 20.195312 C 25.667969 20.203125 25.667969 20.207031 25.667969 20.210938 C 25.671875 20.28125 25.683594 20.351562 25.699219 20.421875 " fill-opacity="1" fill-rule="nonzero"/></g></g></g><g clip-path="url(#cca9d5b299)"><g clip-path="url(#4a8f875167)"><g clip-path="url(#b9cfe2fff8)"><path fill="#0097b2" d="M 26.652344 20.191406 C 26.65625 20.207031 26.664062 20.222656 26.671875 20.238281 C 26.730469 20.378906 26.878906 20.457031 27.03125 20.421875 C 27.183594 20.382812 27.28125 20.242188 27.269531 20.09375 C 27.269531 20.078125 27.265625 20.066406 27.265625 20.054688 C 27.261719 20.050781 27.261719 20.046875 27.261719 20.042969 C 27.257812 20.027344 27.25 20.007812 27.246094 19.992188 C 27.1875 19.855469 27.035156 19.777344 26.882812 19.8125 C 26.734375 19.847656 26.636719 19.988281 26.644531 20.136719 L 26.644531 20.140625 C 26.648438 20.15625 26.648438 20.171875 26.652344 20.191406 " fill-opacity="1" fill-rule="nonzero"/></g></g></g><g clip-path="url(#f0cd9c00d6)"><g clip-path="url(#e01e88dd30)"><g clip-path="url(#44edec7583)"><path fill="#0097b2" d="M 21.144531 15.636719 C 21.109375 15.488281 21.230469 15.3125 21.410156 15.269531 L 24.570312 14.5 C 24.75 14.457031 24.945312 14.554688 24.980469 14.707031 L 25.265625 15.871094 C 25.300781 16.023438 25.167969 16.1875 24.992188 16.230469 L 21.828125 17 C 21.648438 17.042969 21.464844 16.957031 21.429688 16.804688 Z M 25.417969 14.621094 C 25.382812 14.46875 25.519531 14.289062 25.695312 14.246094 L 28.859375 13.476562 C 29.039062 13.433594 29.214844 13.535156 29.253906 13.6875 L 29.535156 14.851562 C 29.574219 15.003906 29.457031 15.164062 29.28125 15.207031 L 26.117188 15.976562 C 25.9375 16.019531 25.738281 15.9375 25.703125 15.785156 Z M 29.679688 13.582031 C 29.640625 13.429688 29.765625 13.257812 29.945312 13.214844 L 33.105469 12.445312 C 33.285156 12.402344 33.464844 12.5 33.5 12.652344 L 33.785156 13.820312 C 33.820312 13.972656 33.703125 14.132812 33.527344 14.175781 L 30.363281 14.945312 C 30.183594 14.988281 30 14.902344 29.960938 14.75 Z M 33.925781 12.550781 C 33.890625 12.398438 34.046875 12.214844 34.25 12.167969 L 37.839844 11.292969 C 38.042969 11.242188 38.214844 11.347656 38.253906 11.496094 L 38.921875 14.253906 C 38.933594 14.296875 38.882812 14.328125 38.847656 14.296875 C 38.636719 14.089844 38.15625 13.628906 37.726562 13.238281 C 37.679688 13.195312 37.613281 13.179688 37.554688 13.195312 L 34.671875 13.898438 C 34.46875 13.945312 34.246094 13.867188 34.210938 13.714844 Z M 38.890625 12.382812 C 38.867188 12.277344 38.929688 12.136719 39.058594 12.105469 L 39.433594 12.015625 C 39.496094 12 39.558594 12.015625 39.605469 12.0625 C 39.90625 12.359375 40.5 13.550781 40.640625 14.726562 C 40.652344 14.804688 40.585938 14.871094 40.507812 14.867188 C 40.285156 14.851562 39.867188 14.664062 39.597656 14.5625 C 39.476562 14.515625 39.386719 14.414062 39.355469 14.289062 Z M 21.238281 20.878906 C 21.378906 21.285156 21.753906 21.402344 22.078125 21.390625 C 22.675781 21.367188 25.609375 20.6875 25.648438 20.679688 C 25.648438 20.679688 25.601562 20.554688 25.578125 20.472656 C 25.574219 20.464844 25.574219 20.460938 25.570312 20.453125 L 25.570312 20.449219 C 25.570312 20.441406 25.566406 20.433594 25.566406 20.425781 C 25.550781 20.355469 25.539062 20.289062 25.535156 20.222656 C 25.535156 20.214844 25.535156 20.207031 25.535156 20.203125 C 25.488281 19.511719 25.945312 18.890625 26.621094 18.730469 C 26.949219 18.648438 27.296875 18.6875 27.601562 18.84375 C 27.902344 18.996094 28.136719 19.246094 28.269531 19.554688 C 28.296875 19.617188 28.316406 19.683594 28.335938 19.75 C 28.335938 19.761719 28.339844 19.769531 28.34375 19.777344 L 28.34375 19.78125 C 28.347656 19.800781 28.351562 19.816406 28.355469 19.835938 C 28.367188 19.898438 28.375 19.957031 28.378906 20.019531 L 36.082031 18.117188 C 36.070312 18.09375 36.0625 18.066406 36.050781 18.042969 C 36.050781 18.035156 36.046875 18.023438 36.042969 18.015625 C 36.035156 17.992188 36.027344 17.964844 36.019531 17.9375 C 36.019531 17.929688 36.015625 17.921875 36.015625 17.910156 C 36.011719 17.902344 36.011719 17.894531 36.007812 17.886719 C 35.992188 17.816406 35.984375 17.75 35.976562 17.679688 L 35.976562 17.671875 C 35.976562 17.667969 35.976562 17.664062 35.976562 17.660156 C 35.933594 16.972656 36.390625 16.351562 37.0625 16.1875 C 37.394531 16.109375 37.742188 16.148438 38.042969 16.300781 C 38.34375 16.453125 38.582031 16.707031 38.710938 17.015625 C 38.738281 17.078125 38.761719 17.144531 38.777344 17.210938 C 38.78125 17.21875 38.78125 17.226562 38.785156 17.238281 C 38.785156 17.242188 38.789062 17.25 38.789062 17.253906 C 38.792969 17.269531 38.796875 17.285156 38.800781 17.300781 C 38.808594 17.355469 38.816406 17.410156 38.820312 17.464844 L 38.820312 17.46875 L 40.964844 16.953125 C 41.160156 16.90625 41.277344 16.710938 41.230469 16.519531 L 40.824219 14.503906 C 40.679688 13.769531 40.433594 13.054688 40.089844 12.386719 C 39.605469 11.4375 38.9375 10.792969 38.890625 10.746094 C 38.796875 10.652344 38.6875 10.566406 38.5625 10.519531 C 38.292969 10.421875 37.992188 10.507812 37.722656 10.570312 C 37.574219 10.601562 20.570312 14.734375 20.472656 14.765625 C 20.429688 14.777344 20.378906 14.789062 20.339844 14.8125 C 20.046875 14.976562 19.890625 15.316406 19.960938 15.648438 C 20.261719 17.0625 21.238281 20.878906 21.238281 20.878906 " fill-opacity="1" fill-rule="nonzero"/></g></g></g></svg>