<svg xmlns="http://www.w3.org/2000/svg" xmlns:xlink="http://www.w3.org/1999/xlink" width="73" zoomAndPan="magnify" viewBox="0 0 54.75 37.5" height="50" preserveAspectRatio="xMidYMid meet" version="1.0"><defs><clipPath id="9a1694fa83"><path d="M 10 3 L 38 3 L 38 21 L 10 21 Z M 10 3 " clip-rule="nonzero"/></clipPath><clipPath id="3a1151ee86"><path d="M 0.238281 18.195312 C 0.238281 23.019531 2.152344 27.648438 5.566406 31.058594 C 8.976562 34.472656 13.605469 36.386719 18.429688 36.386719 L 35.9375 36.386719 C 40.761719 36.386719 45.390625 34.472656 48.804688 31.058594 C 52.214844 27.648438 54.132812 23.019531 54.132812 18.195312 C 54.132812 13.367188 52.214844 8.742188 48.804688 5.328125 C 45.390625 1.917969 40.761719 0 35.9375 0 L 18.429688 0 C 13.605469 0 8.976562 1.917969 5.566406 5.328125 C 2.152344 8.742188 0.238281 13.367188 0.238281 18.195312 Z M 0.238281 18.195312 " clip-rule="nonzero"/></clipPath><clipPath id="64c529426f"><path d="M 11 22 L 38 22 L 38 36.265625 L 11 36.265625 Z M 11 22 " clip-rule="nonzero"/></clipPath><clipPath id="a8741cc47d"><path d="M 0.238281 18.195312 C 0.238281 23.019531 2.152344 27.648438 5.566406 31.058594 C 8.976562 34.472656 13.605469 36.386719 18.429688 36.386719 L 35.9375 36.386719 C 40.761719 36.386719 45.390625 34.472656 48.804688 31.058594 C 52.214844 27.648438 54.132812 23.019531 54.132812 18.195312 C 54.132812 13.367188 52.214844 8.742188 48.804688 5.328125 C 45.390625 1.917969 40.761719 0 35.9375 0 L 18.429688 0 C 13.605469 0 8.976562 1.917969 5.566406 5.328125 C 2.152344 8.742188 0.238281 13.367188 0.238281 18.195312 Z M 0.238281 18.195312 " clip-rule="nonzero"/></clipPath><clipPath id="bed22a2b2e"><path d="M 14 17 L 46 17 L 46 34 L 14 34 Z M 14 17 " clip-rule="nonzero"/></clipPath><clipPath id="db2082d21a"><path d="M 0.238281 18.195312 C 0.238281 23.019531 2.152344 27.648438 5.566406 31.058594 C 8.976562 34.472656 13.605469 36.386719 18.429688 36.386719 L 35.9375 36.386719 C 40.761719 36.386719 45.390625 34.472656 48.804688 31.058594 C 52.214844 27.648438 54.132812 23.019531 54.132812 18.195312 C 54.132812 13.367188 52.214844 8.742188 48.804688 5.328125 C 45.390625 1.917969 40.761719 0 35.9375 0 L 18.429688 0 C 13.605469 0 8.976562 1.917969 5.566406 5.328125 C 2.152344 8.742188 0.238281 13.367188 0.238281 18.195312 Z M 0.238281 18.195312 " clip-rule="nonzero"/></clipPath><clipPath id="cdb0d64f94"><path d="M 0.238281 2 L 53 2 L 53 25 L 0.238281 25 Z M 0.238281 2 " clip-rule="nonzero"/></clipPath><clipPath id="939de67c20"><path d="M 0.238281 18.195312 C 0.238281 23.019531 2.152344 27.648438 5.566406 31.058594 C 8.976562 34.472656 13.605469 36.386719 18.429688 36.386719 L 35.9375 36.386719 C 40.761719 36.386719 45.390625 34.472656 48.804688 31.058594 C 52.214844 27.648438 54.132812 23.019531 54.132812 18.195312 C 54.132812 13.367188 52.214844 8.742188 48.804688 5.328125 C 45.390625 1.917969 40.761719 0 35.9375 0 L 18.429688 0 C 13.605469 0 8.976562 1.917969 5.566406 5.328125 C 2.152344 8.742188 0.238281 13.367188 0.238281 18.195312 Z M 0.238281 18.195312 " clip-rule="nonzero"/></clipPath><clipPath id="dc00c460dc"><path d="M 31 15 L 32 15 L 32 17 L 31 17 Z M 31 15 " clip-rule="nonzero"/></clipPath><clipPath id="b94f38b1e6"><path d="M 17.421875 13.261719 L 35.402344 8.890625 L 37.152344 16.082031 L 19.171875 20.453125 Z M 17.421875 13.261719 " clip-rule="nonzero"/></clipPath><clipPath id="9e63aeba96"><path d="M 18.265625 16.730469 C 18.730469 18.644531 20.660156 19.820312 22.578125 19.351562 L 33.480469 16.703125 C 35.394531 16.234375 36.566406 14.304688 36.101562 12.390625 C 35.636719 10.476562 33.707031 9.300781 31.792969 9.769531 L 20.890625 12.417969 C 18.976562 12.886719 17.800781 14.816406 18.265625 16.730469 Z M 18.265625 16.730469 " clip-rule="nonzero"/></clipPath><clipPath id="aba68154bd"><path d="M 17.421875 13.261719 L 35.402344 8.890625 L 37.152344 16.082031 L 19.171875 20.453125 Z M 17.421875 13.261719 " clip-rule="nonzero"/></clipPath><clipPath id="6ab495ffa1"><path d="M 17.421875 13.261719 L 35.402344 8.890625 L 37.152344 16.082031 L 19.171875 20.453125 Z M 17.421875 13.261719 " clip-rule="nonzero"/></clipPath><clipPath id="f1ad12431f"><path d="M 31 14 L 35 14 L 35 17 L 31 17 Z M 31 14 " clip-rule="nonzero"/></clipPath><clipPath id="0aed05c8f6"><path d="M 17.421875 13.261719 L 35.402344 8.890625 L 37.152344 16.082031 L 19.171875 20.453125 Z M 17.421875 13.261719 " clip-rule="nonzero"/></clipPath><clipPath id="a1f0c6a219"><path d="M 18.265625 16.730469 C 18.730469 18.644531 20.660156 19.820312 22.578125 19.351562 L 33.480469 16.703125 C 35.394531 16.234375 36.566406 14.304688 36.101562 12.390625 C 35.636719 10.476562 33.707031 9.300781 31.792969 9.769531 L 20.890625 12.417969 C 18.976562 12.886719 17.800781 14.816406 18.265625 16.730469 Z M 18.265625 16.730469 " clip-rule="nonzero"/></clipPath><clipPath id="b058775834"><path d="M 17.421875 13.261719 L 35.402344 8.890625 L 37.152344 16.082031 L 19.171875 20.453125 Z M 17.421875 13.261719 " clip-rule="nonzero"/></clipPath><clipPath id="9d3df75b61"><path d="M 17.421875 13.261719 L 35.402344 8.890625 L 37.152344 16.082031 L 19.171875 20.453125 Z M 17.421875 13.261719 " clip-rule="nonzero"/></clipPath><clipPath id="b5c4c2df2e"><path d="M 32 15 L 34 15 L 34 16 L 32 16 Z M 32 15 " clip-rule="nonzero"/></clipPath><clipPath id="0ba236bc51"><path d="M 17.421875 13.261719 L 35.402344 8.890625 L 37.152344 16.082031 L 19.171875 20.453125 Z M 17.421875 13.261719 " clip-rule="nonzero"/></clipPath><clipPath id="05b2c0b934"><path d="M 18.265625 16.730469 C 18.730469 18.644531 20.660156 19.820312 22.578125 19.351562 L 33.480469 16.703125 C 35.394531 16.234375 36.566406 14.304688 36.101562 12.390625 C 35.636719 10.476562 33.707031 9.300781 31.792969 9.769531 L 20.890625 12.417969 C 18.976562 12.886719 17.800781 14.816406 18.265625 16.730469 Z M 18.265625 16.730469 " clip-rule="nonzero"/></clipPath><clipPath id="874760b017"><path d="M 17.421875 13.261719 L 35.402344 8.890625 L 37.152344 16.082031 L 19.171875 20.453125 Z M 17.421875 13.261719 " clip-rule="nonzero"/></clipPath><clipPath id="30718d28da"><path d="M 17.421875 13.261719 L 35.402344 8.890625 L 37.152344 16.082031 L 19.171875 20.453125 Z M 17.421875 13.261719 " clip-rule="nonzero"/></clipPath><clipPath id="2c03959aa0"><path d="M 22 17 L 26 17 L 26 19 L 22 19 Z M 22 17 " clip-rule="nonzero"/></clipPath><clipPath id="b5323f425b"><path d="M 17.421875 13.261719 L 35.402344 8.890625 L 37.152344 16.082031 L 19.171875 20.453125 Z M 17.421875 13.261719 " clip-rule="nonzero"/></clipPath><clipPath id="da57991103"><path d="M 18.265625 16.730469 C 18.730469 18.644531 20.660156 19.820312 22.578125 19.351562 L 33.480469 16.703125 C 35.394531 16.234375 36.566406 14.304688 36.101562 12.390625 C 35.636719 10.476562 33.707031 9.300781 31.792969 9.769531 L 20.890625 12.417969 C 18.976562 12.886719 17.800781 14.816406 18.265625 16.730469 Z M 18.265625 16.730469 " clip-rule="nonzero"/></clipPath><clipPath id="58a63ff1ad"><path d="M 17.421875 13.261719 L 35.402344 8.890625 L 37.152344 16.082031 L 19.171875 20.453125 Z M 17.421875 13.261719 " clip-rule="nonzero"/></clipPath><clipPath id="a92950f939"><path d="M 17.421875 13.261719 L 35.402344 8.890625 L 37.152344 16.082031 L 19.171875 20.453125 Z M 17.421875 13.261719 " clip-rule="nonzero"/></clipPath><clipPath id="e6fc15d926"><path d="M 22 16 L 25 16 L 25 20 L 22 20 Z M 22 16 " clip-rule="nonzero"/></clipPath><clipPath id="fa112fb0b9"><path d="M 17.421875 13.261719 L 35.402344 8.890625 L 37.152344 16.082031 L 19.171875 20.453125 Z M 17.421875 13.261719 " clip-rule="nonzero"/></clipPath><clipPath id="3c5d62f4d4"><path d="M 18.265625 16.730469 C 18.730469 18.644531 20.660156 19.820312 22.578125 19.351562 L 33.480469 16.703125 C 35.394531 16.234375 36.566406 14.304688 36.101562 12.390625 C 35.636719 10.476562 33.707031 9.300781 31.792969 9.769531 L 20.890625 12.417969 C 18.976562 12.886719 17.800781 14.816406 18.265625 16.730469 Z M 18.265625 16.730469 " clip-rule="nonzero"/></clipPath><clipPath id="9322a84f87"><path d="M 17.421875 13.261719 L 35.402344 8.890625 L 37.152344 16.082031 L 19.171875 20.453125 Z M 17.421875 13.261719 " clip-rule="nonzero"/></clipPath><clipPath id="2705881a23"><path d="M 17.421875 13.261719 L 35.402344 8.890625 L 37.152344 16.082031 L 19.171875 20.453125 Z M 17.421875 13.261719 " clip-rule="nonzero"/></clipPath><clipPath id="6755b96ea1"><path d="M 23 17 L 25 17 L 25 19 L 23 19 Z M 23 17 " clip-rule="nonzero"/></clipPath><clipPath id="5104f241b1"><path d="M 17.421875 13.261719 L 35.402344 8.890625 L 37.152344 16.082031 L 19.171875 20.453125 Z M 17.421875 13.261719 " clip-rule="nonzero"/></clipPath><clipPath id="4c4b599176"><path d="M 18.265625 16.730469 C 18.730469 18.644531 20.660156 19.820312 22.578125 19.351562 L 33.480469 16.703125 C 35.394531 16.234375 36.566406 14.304688 36.101562 12.390625 C 35.636719 10.476562 33.707031 9.300781 31.792969 9.769531 L 20.890625 12.417969 C 18.976562 12.886719 17.800781 14.816406 18.265625 16.730469 Z M 18.265625 16.730469 " clip-rule="nonzero"/></clipPath><clipPath id="50bb768e1b"><path d="M 17.421875 13.261719 L 35.402344 8.890625 L 37.152344 16.082031 L 19.171875 20.453125 Z M 17.421875 13.261719 " clip-rule="nonzero"/></clipPath><clipPath id="0c74af8fea"><path d="M 17.421875 13.261719 L 35.402344 8.890625 L 37.152344 16.082031 L 19.171875 20.453125 Z M 17.421875 13.261719 " clip-rule="nonzero"/></clipPath><clipPath id="86e7f86ce6"><path d="M 18 9 L 37 9 L 37 19 L 18 19 Z M 18 9 " clip-rule="nonzero"/></clipPath><clipPath id="624e6be8e7"><path d="M 17.421875 13.261719 L 35.402344 8.890625 L 37.152344 16.082031 L 19.171875 20.453125 Z M 17.421875 13.261719 " clip-rule="nonzero"/></clipPath><clipPath id="a073d03a83"><path d="M 18.265625 16.730469 C 18.730469 18.644531 20.660156 19.820312 22.578125 19.351562 L 33.480469 16.703125 C 35.394531 16.234375 36.566406 14.304688 36.101562 12.390625 C 35.636719 10.476562 33.707031 9.300781 31.792969 9.769531 L 20.890625 12.417969 C 18.976562 12.886719 17.800781 14.816406 18.265625 16.730469 Z M 18.265625 16.730469 " clip-rule="nonzero"/></clipPath><clipPath id="6ef949d805"><path d="M 17.421875 13.261719 L 35.402344 8.890625 L 37.152344 16.082031 L 19.171875 20.453125 Z M 17.421875 13.261719 " clip-rule="nonzero"/></clipPath><clipPath id="9f67ed56cc"><path d="M 17.421875 13.261719 L 35.402344 8.890625 L 37.152344 16.082031 L 19.171875 20.453125 Z M 17.421875 13.261719 " clip-rule="nonzero"/></clipPath></defs><g clip-path="url(#9a1694fa83)"><g clip-path="url(#3a1151ee86)"><path fill="#ffffff" d="M 14.484375 20.152344 C 14.480469 20.0625 14.480469 19.972656 14.480469 19.882812 C 14.480469 11.472656 21.296875 4.652344 29.710938 4.652344 C 32.382812 4.652344 34.894531 5.34375 37.078125 6.554688 C 34.355469 4.5625 31 3.390625 27.367188 3.390625 C 18.359375 3.390625 11.042969 10.609375 10.878906 19.578125 C 12.011719 19.847656 13.214844 20.039062 14.484375 20.152344 " fill-opacity="1" fill-rule="nonzero"/></g></g><g clip-path="url(#64c529426f)"><g clip-path="url(#a8741cc47d)"><path fill="#ffffff" d="M 29.710938 35.113281 C 26.542969 35.113281 23.601562 34.144531 21.167969 32.492188 C 20.609375 32.453125 20.0625 32.429688 19.527344 32.429688 C 19.527344 32.429688 18.152344 32.652344 17.136719 32.816406 C 19.949219 35.042969 23.503906 36.375 27.367188 36.375 C 31 36.375 34.355469 35.199219 37.078125 33.210938 C 34.894531 34.421875 32.382812 35.113281 29.710938 35.113281 Z M 14.796875 22.984375 C 13.5 22.914062 12.257812 22.765625 11.089844 22.539062 C 11.460938 24.835938 12.308594 26.972656 13.523438 28.847656 L 14.953125 29.292969 C 15.964844 29.609375 17.074219 29.824219 18.273438 29.9375 C 16.5625 27.996094 15.339844 25.613281 14.796875 22.984375 " fill-opacity="1" fill-rule="nonzero"/></g></g><g clip-path="url(#bed22a2b2e)"><g clip-path="url(#db2082d21a)"><path fill="#ffffff" d="M 30.617188 31.113281 C 38.976562 28.070312 44.929688 22.457031 45.683594 17.460938 C 43.878906 21.890625 38.4375 26.464844 31.183594 29.105469 C 24.992188 31.363281 18.90625 31.691406 14.625 30.351562 C 15.441406 31.347656 16.375 32.242188 17.402344 33.023438 C 21.246094 33.429688 25.902344 32.828125 30.617188 31.113281 " fill-opacity="1" fill-rule="nonzero"/></g></g><g clip-path="url(#cdb0d64f94)"><g clip-path="url(#939de67c20)"><path fill="#ffffff" d="M 32.210938 18.804688 C 18.214844 23.902344 4.609375 21.824219 1.820312 14.167969 C 1.316406 12.785156 1.199219 11.316406 1.429688 9.808594 C 0.421875 12.277344 0.238281 14.707031 1.042969 16.917969 C 3.832031 24.578125 17.441406 26.652344 31.433594 21.554688 C 42.90625 17.378906 51.078125 9.679688 52.117188 2.820312 C 49.640625 8.898438 42.167969 15.179688 32.210938 18.804688 " fill-opacity="1" fill-rule="nonzero"/></g></g><g clip-path="url(#dc00c460dc)"><g clip-path="url(#b94f38b1e6)"><g clip-path="url(#9e63aeba96)"><g clip-path="url(#aba68154bd)"><g clip-path="url(#6ab495ffa1)"><path fill="#ffffff" d="M 31.953125 16.085938 C 31.945312 16.0625 31.9375 16.042969 31.929688 16.019531 C 31.9375 16.042969 31.945312 16.066406 31.953125 16.085938 Z M 31.902344 15.925781 C 31.90625 15.949219 31.914062 15.972656 31.921875 15.996094 C 31.914062 15.972656 31.90625 15.949219 31.902344 15.925781 " fill-opacity="1" fill-rule="nonzero"/></g></g></g></g></g><g clip-path="url(#f1ad12431f)"><g clip-path="url(#0aed05c8f6)"><g clip-path="url(#a1f0c6a219)"><g clip-path="url(#b058775834)"><g clip-path="url(#9d3df75b61)"><path fill="#ffffff" d="M 32.464844 15.765625 C 32.457031 15.730469 32.449219 15.691406 32.449219 15.65625 L 32.445312 15.648438 C 32.425781 15.324219 32.640625 15.023438 32.964844 14.945312 C 33.292969 14.867188 33.625 15.039062 33.75 15.339844 C 33.765625 15.375 33.777344 15.410156 33.785156 15.445312 C 33.789062 15.457031 33.792969 15.464844 33.792969 15.476562 C 33.796875 15.5 33.800781 15.527344 33.804688 15.550781 C 33.832031 15.878906 33.617188 16.1875 33.285156 16.265625 C 32.957031 16.347656 32.628906 16.175781 32.5 15.875 C 32.484375 15.839844 32.472656 15.804688 32.464844 15.765625 Z M 32.011719 15.878906 C 32.027344 15.941406 32.046875 16 32.070312 16.058594 C 32.285156 16.566406 32.84375 16.855469 33.398438 16.722656 C 33.953125 16.585938 34.316406 16.066406 34.269531 15.515625 C 34.265625 15.472656 34.261719 15.425781 34.253906 15.382812 C 34.25 15.367188 34.246094 15.351562 34.242188 15.335938 C 34.226562 15.273438 34.207031 15.210938 34.183594 15.15625 C 33.964844 14.648438 33.410156 14.355469 32.855469 14.492188 C 32.304688 14.625 31.945312 15.132812 31.980469 15.675781 C 31.980469 15.683594 31.980469 15.6875 31.980469 15.691406 C 31.984375 15.753906 31.996094 15.816406 32.011719 15.878906 " fill-opacity="1" fill-rule="nonzero"/></g></g></g></g></g><g clip-path="url(#b5c4c2df2e)"><g clip-path="url(#0ba236bc51)"><g clip-path="url(#05b2c0b934)"><g clip-path="url(#874760b017)"><g clip-path="url(#30718d28da)"><path fill="#ffffff" d="M 32.855469 15.671875 C 32.859375 15.6875 32.863281 15.703125 32.871094 15.714844 C 32.921875 15.839844 33.058594 15.910156 33.191406 15.875 C 33.324219 15.84375 33.414062 15.71875 33.402344 15.585938 C 33.402344 15.574219 33.398438 15.5625 33.398438 15.550781 C 33.398438 15.546875 33.394531 15.542969 33.394531 15.539062 C 33.390625 15.527344 33.386719 15.511719 33.382812 15.496094 C 33.328125 15.375 33.195312 15.304688 33.058594 15.335938 C 32.925781 15.367188 32.839844 15.492188 32.847656 15.625 C 32.851562 15.640625 32.851562 15.65625 32.855469 15.671875 " fill-opacity="1" fill-rule="nonzero"/></g></g></g></g></g><g clip-path="url(#2c03959aa0)"><g clip-path="url(#b5323f425b)"><g clip-path="url(#da57991103)"><g clip-path="url(#58a63ff1ad)"><g clip-path="url(#a92950f939)"><path fill="#ffffff" d="M 25.09375 17.613281 C 25.105469 17.667969 25.113281 17.71875 25.117188 17.773438 C 25.113281 17.722656 25.105469 17.667969 25.09375 17.617188 C 25.089844 17.597656 25.085938 17.582031 25.082031 17.5625 C 25.085938 17.578125 25.089844 17.597656 25.09375 17.613281 Z M 22.625 18.179688 C 22.644531 18.238281 22.664062 18.300781 22.6875 18.359375 C 22.6875 18.359375 22.648438 18.25 22.625 18.179688 Z M 22.621094 18.160156 C 22.625 18.167969 22.625 18.171875 22.625 18.179688 C 22.625 18.171875 22.625 18.167969 22.621094 18.160156 " fill-opacity="1" fill-rule="nonzero"/></g></g></g></g></g><g clip-path="url(#e6fc15d926)"><g clip-path="url(#fa112fb0b9)"><g clip-path="url(#3c5d62f4d4)"><g clip-path="url(#9322a84f87)"><g clip-path="url(#2705881a23)"><path fill="#ffffff" d="M 23.191406 18.023438 C 23.183594 17.984375 23.175781 17.949219 23.175781 17.914062 L 23.171875 17.902344 C 23.152344 17.582031 23.367188 17.28125 23.691406 17.199219 C 24.019531 17.121094 24.351562 17.292969 24.476562 17.59375 C 24.492188 17.628906 24.503906 17.664062 24.511719 17.699219 C 24.515625 17.710938 24.519531 17.71875 24.519531 17.730469 C 24.523438 17.757812 24.527344 17.78125 24.53125 17.808594 C 24.558594 18.136719 24.34375 18.441406 24.011719 18.523438 C 23.683594 18.601562 23.355469 18.429688 23.226562 18.128906 C 23.210938 18.09375 23.199219 18.058594 23.191406 18.023438 Z M 22.738281 18.132812 C 22.753906 18.203125 22.777344 18.269531 22.804688 18.335938 C 23.027344 18.828125 23.578125 19.109375 24.125 18.976562 C 24.667969 18.84375 25.027344 18.34375 25 17.800781 C 24.996094 17.75 24.988281 17.695312 24.980469 17.640625 C 24.976562 17.621094 24.972656 17.605469 24.96875 17.589844 C 24.953125 17.527344 24.933594 17.46875 24.910156 17.410156 C 24.691406 16.902344 24.136719 16.613281 23.582031 16.746094 C 23.03125 16.878906 22.671875 17.386719 22.707031 17.933594 C 22.707031 17.9375 22.707031 17.941406 22.707031 17.945312 C 22.710938 18.007812 22.722656 18.070312 22.738281 18.132812 " fill-opacity="1" fill-rule="nonzero"/></g></g></g></g></g><g clip-path="url(#6755b96ea1)"><g clip-path="url(#5104f241b1)"><g clip-path="url(#4c4b599176)"><g clip-path="url(#50bb768e1b)"><g clip-path="url(#0c74af8fea)"><path fill="#ffffff" d="M 23.582031 17.925781 C 23.585938 17.941406 23.589844 17.957031 23.597656 17.972656 C 23.648438 18.09375 23.785156 18.164062 23.917969 18.132812 C 24.050781 18.097656 24.140625 17.972656 24.128906 17.839844 C 24.128906 17.828125 24.125 17.820312 24.125 17.808594 C 24.125 17.804688 24.125 17.800781 24.121094 17.796875 C 24.117188 17.78125 24.113281 17.765625 24.109375 17.753906 C 24.054688 17.628906 23.921875 17.558594 23.785156 17.59375 C 23.652344 17.625 23.566406 17.746094 23.574219 17.878906 L 23.574219 17.882812 C 23.578125 17.898438 23.578125 17.914062 23.582031 17.925781 " fill-opacity="1" fill-rule="nonzero"/></g></g></g></g></g><g clip-path="url(#86e7f86ce6)"><g clip-path="url(#624e6be8e7)"><g clip-path="url(#a073d03a83)"><g clip-path="url(#6ef949d805)"><g clip-path="url(#9f67ed56cc)"><path fill="#ffffff" d="M 18.691406 13.882812 C 18.660156 13.75 18.765625 13.59375 18.925781 13.558594 L 21.734375 12.875 C 21.890625 12.835938 22.066406 12.921875 22.097656 13.054688 L 22.347656 14.089844 C 22.382812 14.226562 22.265625 14.371094 22.105469 14.410156 L 19.296875 15.09375 C 19.140625 15.132812 18.976562 15.054688 18.945312 14.921875 Z M 22.484375 12.980469 C 22.453125 12.84375 22.574219 12.6875 22.734375 12.648438 L 25.539062 11.964844 C 25.699219 11.925781 25.859375 12.015625 25.890625 12.152344 L 26.144531 13.1875 C 26.175781 13.320312 26.074219 13.464844 25.914062 13.503906 L 23.105469 14.183594 C 22.949219 14.222656 22.769531 14.148438 22.738281 14.015625 Z M 26.269531 12.058594 C 26.238281 11.925781 26.34375 11.769531 26.503906 11.730469 L 29.3125 11.050781 C 29.46875 11.011719 29.632812 11.097656 29.664062 11.234375 L 29.914062 12.269531 C 29.949219 12.402344 29.84375 12.546875 29.683594 12.585938 L 26.878906 13.269531 C 26.71875 13.308594 26.554688 13.230469 26.519531 13.09375 Z M 30.042969 11.140625 C 30.007812 11.007812 30.148438 10.847656 30.328125 10.800781 L 33.515625 10.027344 C 33.695312 9.984375 33.851562 10.074219 33.882812 10.207031 L 34.480469 12.65625 C 34.488281 12.695312 34.441406 12.722656 34.410156 12.695312 C 34.222656 12.511719 33.796875 12.101562 33.414062 11.753906 C 33.375 11.71875 33.316406 11.703125 33.261719 11.714844 L 30.703125 12.339844 C 30.519531 12.382812 30.328125 12.3125 30.292969 12.175781 Z M 34.449219 10.996094 C 34.429688 10.902344 34.484375 10.773438 34.597656 10.746094 L 34.929688 10.667969 C 34.984375 10.652344 35.042969 10.667969 35.085938 10.707031 C 35.351562 10.972656 35.878906 12.03125 36.003906 13.074219 C 36.011719 13.144531 35.953125 13.203125 35.882812 13.199219 C 35.6875 13.1875 35.316406 13.019531 35.078125 12.929688 C 34.96875 12.886719 34.890625 12.796875 34.863281 12.683594 Z M 18.773438 18.539062 C 18.898438 18.898438 19.234375 19.003906 19.519531 18.992188 C 20.050781 18.972656 22.65625 18.367188 22.6875 18.359375 C 22.6875 18.359375 22.648438 18.25 22.625 18.179688 C 22.625 18.171875 22.625 18.167969 22.621094 18.160156 C 22.621094 18.152344 22.617188 18.144531 22.617188 18.136719 C 22.601562 18.074219 22.59375 18.015625 22.589844 17.953125 C 22.589844 17.949219 22.589844 17.941406 22.589844 17.9375 C 22.550781 17.324219 22.953125 16.773438 23.554688 16.628906 C 23.847656 16.558594 24.15625 16.59375 24.425781 16.730469 C 24.691406 16.863281 24.902344 17.089844 25.015625 17.363281 C 25.039062 17.417969 25.0625 17.476562 25.078125 17.539062 C 25.078125 17.542969 25.082031 17.550781 25.082031 17.558594 L 25.082031 17.5625 C 25.085938 17.578125 25.089844 17.597656 25.09375 17.613281 C 25.105469 17.667969 25.113281 17.71875 25.117188 17.773438 L 31.953125 16.085938 C 31.945312 16.0625 31.9375 16.042969 31.929688 16.019531 C 31.925781 16.011719 31.925781 16.003906 31.921875 15.996094 C 31.914062 15.972656 31.90625 15.949219 31.902344 15.925781 C 31.898438 15.917969 31.898438 15.910156 31.894531 15.902344 C 31.894531 15.894531 31.890625 15.886719 31.890625 15.878906 C 31.875 15.820312 31.867188 15.757812 31.863281 15.699219 L 31.863281 15.691406 C 31.863281 15.6875 31.863281 15.683594 31.863281 15.679688 C 31.824219 15.070312 32.230469 14.519531 32.824219 14.375 C 33.121094 14.300781 33.429688 14.339844 33.699219 14.476562 C 33.964844 14.609375 34.175781 14.835938 34.289062 15.109375 C 34.3125 15.164062 34.332031 15.222656 34.351562 15.28125 C 34.351562 15.289062 34.351562 15.296875 34.355469 15.304688 C 34.355469 15.308594 34.359375 15.316406 34.359375 15.320312 C 34.363281 15.332031 34.363281 15.347656 34.367188 15.359375 C 34.378906 15.410156 34.382812 15.457031 34.386719 15.503906 L 34.386719 15.511719 L 36.292969 15.050781 C 36.464844 15.011719 36.570312 14.839844 36.527344 14.667969 L 36.167969 12.878906 C 36.039062 12.226562 35.820312 11.589844 35.515625 10.996094 C 35.085938 10.15625 34.492188 9.582031 34.449219 9.539062 C 34.363281 9.457031 34.269531 9.378906 34.15625 9.339844 C 33.917969 9.253906 33.652344 9.332031 33.414062 9.382812 C 33.28125 9.414062 18.179688 13.082031 18.09375 13.109375 C 18.054688 13.121094 18.011719 13.128906 17.976562 13.148438 C 17.714844 13.296875 17.578125 13.597656 17.640625 13.894531 C 17.90625 15.148438 18.773438 18.539062 18.773438 18.539062 " fill-opacity="1" fill-rule="nonzero"/></g></g></g></g></g></svg>